<?xml version="1.0" encoding="utf-8"?>
<!-- Generator: Adobe Illustrator 23.0.2, SVG Export Plug-In . SVG Version: 6.00 Build 0)  -->
<svg version="1.1" id="Layer_1" xmlns="http://www.w3.org/2000/svg" xmlns:xlink="http://www.w3.org/1999/xlink" x="0px" y="0px"
	 viewBox="0 0 85.7 114.3" style="enable-background:new 0 0 85.7 114.3;" xml:space="preserve">
<style type="text/css">
	.st0{fill:#FFFFFF;}
	.st4{fill:#616265;}
</style>
<g>
	<g>
		<path d="M85.7-0.1H0v5.2V109v5.2h85.7V-0.1z M80.5,109H5.2V5.1h49.3l26,26V109z"/>
		<rect x="5.2" y="5.1" class="st0" width="75" height="104"/>
	</g>
</g>

<g id="Layer_4">
	<path class="st4" d="M14.5,29.1v8h55.9v-8H14.5z M14.5,45.1v39.2c0,0.4,0.3,0.7,0.7,0.7h54.4c0.4,0,0.7-0.3,0.7-0.7V45.1H14.5
		L14.5,45.1z M22.4,53.1h8v8h-8V53.1z M38.4,53.1h8v8h-8V53.1z M54.4,53.1h8v8h-8V53.1z M22.4,69.1h8v8h-8V69.1z M38.4,69.1h8v8h-8
		V69.1z"/>
</g>
</svg>
