<?xml version="1.0" encoding="utf-8"?>
<!-- Generator: Adobe Illustrator 22.1.0, SVG Export Plug-In . SVG Version: 6.00 Build 0)  -->
<svg version="1.1" xmlns="http://www.w3.org/2000/svg" xmlns:xlink="http://www.w3.org/1999/xlink" x="0px" y="0px"
	 viewBox="0 0 85.7 114.3" xml:space="preserve">
<style type="text/css">
	.st0{fill:#FFFFFF;}
	.st1{display:none;}
	.st2{display:inline;}
	.st3{fill:#FF0000;}
	.st4{fill:#616265;}
	.st5{fill:#00A651;}
	.st6{fill:#D0D0D0;}
	.st7{display:inline;fill:#616265;}
</style>
	<polygon class="st5" points="85.2,114.3 -0.5,114.3 -0.5,0 51.1,0 85.2,30.9 	"/>
	<path class="st0" d="M56.5,49.5l-3.9,4.1L36.8,69.4L32.2,65l-4.1-4.1l-8,8l4.1,4.1l8.5,8.5l3.9,4.1l4.1-4.1l19.9-19.9l4.1-4.1
		L56.5,49.5z"/>
	<path d="M84.1,26L60,1.8L58.2,0H0v5.2v103.9v5.2h85.7V27.5L84.1,26z M80.5,109.1H5.2V5.2h49.3v26h26V109.1z M76.9,26H59.7V8.8
				L76.9,26z"/>
		
		
</svg>
