<?xml version="1.0" encoding="utf-8"?>
<!-- Generator: Adobe Illustrator 23.0.2, SVG Export Plug-In . SVG Version: 6.00 Build 0)  -->
<svg version="1.1" id="Layer_1" xmlns="http://www.w3.org/2000/svg" xmlns:xlink="http://www.w3.org/1999/xlink" x="0px" y="0px"
	 viewBox="0 0 96.6 124.3" style="enable-background:new 0 0 96.6 124.3;" xml:space="preserve">
<style type="text/css">
	.st0{display:none;}
	.st1{display:inline;}
	.st2{fill:#FF0000;}
	.st3{fill:#616265;}
	.st4{fill:#00A651;}
	.st5{fill:#D0D0D0;}
	.st6{display:inline;fill:#616265;}
	.st7{display:inline;fill:#00A651;}
	.st8{display:inline;fill:#FFFFFF;}
	.st9{fill:#FFFFFF;}
</style>
<g id="Layer_7" class="st0">
	<g class="st1">
		<polygon class="st2" points="73.2,78.6 69.2,74.6 63.2,80.6 57.1,74.6 53.1,78.6 59.1,84.7 53.1,90.7 57.1,94.8 63.2,88.7 
			69.2,94.8 73.2,90.7 67.2,84.7 		"/>
		<path class="st3" d="M63.2,60.8c-13.2,0-23.8,10.7-23.8,23.8s10.7,23.8,23.8,23.8c4,0,8-1,11.3-2.8c0.3,0.3,0.6,0.6,0.9,0.9
			l6.8,6.8c2.5,2.9,6.9,3.1,9.8,0.6s3.1-6.9,0.6-9.8c-0.2-0.2-0.4-0.4-0.6-0.6l-6.8-6.8c-0.3-0.3-0.7-0.6-1.1-0.9
			c1.8-3.3,3-7.2,3-11.3C87.1,71.4,76.4,60.7,63.2,60.8L63.2,60.8z M63.2,67.6c9.5,0,17,7.6,17,17c0,4.5-1.6,8.7-4.5,11.7
			c-0.1,0.1-0.1,0.1-0.2,0.2c-0.3,0.3-0.6,0.6-0.9,0.9c-3,2.7-7.1,4.3-11.5,4.3c-9.5,0-17-7.6-17-17S53.7,67.7,63.2,67.6L63.2,67.6z
			"/>
	</g>
</g>
<g id="Layer_6" class="st0">
	<g class="st1">
		<path class="st4" d="M49.6,89.2c0-9.8,7.9-17.8,17.7-17.8v-7.7c-14,0.1-25.4,11.5-25.4,25.6s11.4,25.5,25.4,25.6v-7.7
			C57.5,106.9,49.6,99,49.6,89.2z"/>
		<path class="st5" d="M67.4,63.6L67.4,63.6l-0.1,7.7h0.1c9.8,0,17.9,8,17.9,17.9s-8,17.9-17.9,17.9h-0.1v7.7h0.1
			c14.1,0,25.6-11.5,25.6-25.6S81.5,63.6,67.4,63.6z"/>
	</g>
</g>
<g id="Layer_5" class="st0">
	<g class="st1">
		<path class="st3" d="M86.5,66.5c0.6,13.3-0.8,10.7-11.9,20.5c-3.9,3.5-3.3,1.6-3.3,5.7c0,0.6,12.9,10.1,14.4,13.1
			c1.2,2.3,1,8.8,0.8,10.7c3.1,0,2.7,0.2,2.7,4.1c0,0.8-0.6,1.4-1.4,1.4H47.3c-1.4,0-3.7-5.5,1.4-5.5c-0.2-1.8-0.4-8.4,0.6-10.7
			c1.4-3.1,14.4-12.5,14.4-13.1c0-4.1,0.8-2.3-3.1-5.7c-11.3-9.8-12.7-7.2-12.1-20.5c-3.1,0-2.7-0.4-2.7-4.3c0-0.8,0.6-1.4,1.4-1.4
			h40.4C89.1,60.8,91.4,66.5,86.5,66.5z M51.4,116.6h3.1l11.9-12.7c0.6-0.8,1.6-0.8,2.5,0l11.7,12.7h3.1c0.2-0.4,0.4-7.8-0.4-9.4
			c-1.2-2.9-14.6-11.7-14.6-14.4c0-3.7-0.6-3.5,4.1-7.8c12.2-11.1,11-6.2,11-18.3v-0.2H51.4l0.2,7.6c1,5.7,14.8,11.9,14.8,15.6
			c0,3.9,0.8,3.7-3.9,7.8C50,108.6,51.4,103.9,51.4,116C51.4,116.2,51.4,116.4,51.4,116.6z"/>
		<path class="st3" d="M68,86l4.9-5.3H62.1L67,86C67.4,86.2,67.8,86.2,68,86z"/>
	</g>
</g>
<g id="Layer_4" class="st0">
	<path class="st6" d="M39.3,63.7v8h55.9v-8H39.3z M39.3,79.7v39.2c0,0.4,0.3,0.7,0.7,0.7h54.4c0.4,0,0.7-0.3,0.7-0.7V79.7H39.3
		L39.3,79.7z M47.2,87.7h8v8h-8V87.7z M63.2,87.7h8v8h-8V87.7z M79.2,87.7h8v8h-8V87.7z M47.2,103.7h8v8h-8V103.7z M63.2,103.7h8v8
		h-8V103.7z"/>
</g>
<g id="Layer_8" class="st0">
	<g class="st1">
		<path d="M48.5,98h-4.2V78.4h5.3l4.7,8c0.9,1.6,1.8,3.5,2.8,5.9h0.1c-0.2-2.1-0.3-4.7-0.3-8.1v-5.9H61v19.6h-4.8
			c-3.3-5.8-5.3-9.2-5.9-10.4c-0.6-1.2-1.3-2.6-2-4.2h-0.1c0.1,2.5,0.2,5.3,0.2,8.5V98C48.4,98,48.5,98,48.5,98z"/>
		<path d="M66.6,99.2h-3l6.2-21.1h3L66.6,99.2z"/>
		<path d="M85.4,92.9h-5.9L78,98h-4.7l6.2-19.6h5.9L91.8,98h-4.9L85.4,92.9z M80.2,89.6h4.5c-1.2-3.8-1.9-6.4-2.3-7.9h-0.1l-0.9,3.7
			L80.2,89.6z"/>
	</g>
</g>
<g id="Layer_9" class="st0">
	<polygon class="st7" points="110,135.4 24.3,135.4 24.3,21.1 75.9,21.1 110,52 	"/>
	<path class="st8" d="M81.3,70.6l-3.9,4.1L61.6,90.5L57,86.1L52.9,82l-8,8l4.1,4.1l8.5,8.5l3.9,4.1l4.1-4.1l19.9-19.9l4.1-4.1
		L81.3,70.6z"/>
</g>
<g>
	<g>
		<g>
			<path d="M95,26L70.9,1.8L69.1,0H10.9v5.2v103.9v5.2h85.7V27.5L95,26z M91.4,109.1H16.1V5.2h49.3v26h26V109.1z M87.8,26H70.6V8.8
				L87.8,26z"/>
			<polygon class="st9" points="91.4,31.2 65.4,31.2 65.4,5.2 16.1,5.2 16.1,109.1 91.4,109.1 			"/>
		</g>
		<polygon class="st9" points="70.6,8.8 70.6,26 87.8,26 		"/>
	</g>
	<g>
		<g>
			<path d="M84.1,36L60,11.8L58.2,10H0v5.2v103.9v5.2h85.7V37.5L84.1,36z M80.5,119.1H5.2V15.2h49.3v26h26V119.1z M76.9,36H59.7
				V18.8L76.9,36z"/>
			<polygon class="st9" points="80.5,41.2 54.5,41.2 54.5,15.2 5.2,15.2 5.2,119.1 80.5,119.1 			"/>
		</g>
		<polygon class="st9" points="59.7,18.8 59.7,36 76.9,36 		"/>
	</g>
</g>
</svg>
