<?xml version="1.0" encoding="utf-8"?>
<!-- Generator: Adobe Illustrator 22.1.0, SVG Export Plug-In . SVG Version: 6.00 Build 0)  -->
<svg version="1.1" xmlns="http://www.w3.org/2000/svg" xmlns:xlink="http://www.w3.org/1999/xlink" x="0px" y="0px"
	 viewBox="0 0 85.7 114.3" xml:space="preserve">
<style type="text/css">
	.st0{fill:#FFFFFF;}
	.st1{display:none;}
	.st2{display:inline;}
	.st3{fill:#FF0000;}
	.st4{fill:#616265;}
	.st5{fill:#00A651;}
	.st6{fill:#D0D0D0;}
	.st7{display:inline;fill:#616265;}
</style>
<g id="Layer_10">
	<polygon class="st0" points="80.5,31.2 54.5,31.2 54.5,5.2 5.2,5.2 5.2,109.1 80.5,109.1 	"/>
	<polygon class="st0" points="59.7,8.8 59.7,26 76.9,26 	"/>
	<polygon class="st0" points="59.7,8.8 59.7,26 76.9,26 	"/>
</g>
<g id="Layer_9">
	<polygon class="st5" points="85.2,114.3 -0.5,114.3 -0.5,0 51.1,0 85.2,30.9 	"/>
	<path class="st0" d="M56.5,49.5l-3.9,4.1L36.8,69.4L32.2,65l-4.1-4.1l-8,8l4.1,4.1l8.5,8.5l3.9,4.1l4.1-4.1l19.9-19.9l4.1-4.1
		L56.5,49.5z"/>
</g>
<g id="Layer_2" class="st1">
	<g class="st2">
		<g>
			<path class="st4" d="M27.7,58.8l16.9-16.9c1.1-1.1,1.1-2.9,0-4c-1.1-1.1-2.9-1.1-4,0L23.7,54.8c-1.1,1.1-1.1,2.9,0,4
				C24.8,59.9,26.6,59.9,27.7,58.8z"/>
			<path class="st4" d="M70.4,63.8c-1.1-1.1-2.9-1.1-4,0L49.5,80.7c-1.1,1.1-1.1,2.9,0,4s2.9,1.1,4,0l16.9-16.9
				C71.5,66.7,71.5,64.9,70.4,63.8z"/>
			<path class="st4" d="M63.4,62.8l-7-7l1-1c1.1-1.1,1.1-2.9,0-4l-1-1c-1.1-1.1-2.9-1.1-4,0l-1,1l-6-6L30.6,59.8l6,6L13.8,88.6
				c-1.1,1.1-1.1,2.9,0,4l1,1c1.1,1.1,2.9,1.1,4,0l22.8-22.8l7,7L63.4,62.8z"/>
		</g>
		<path class="st4" d="M68.4,98.9H67v-1.4c0-1.5-1.3-2.8-2.8-2.8H34.7c-1.5,0-2.8,1.3-2.8,2.8v1.4h-1.4c-1.5,0-2.8,0.9-2.8,2.1
			s1.3,2.1,2.8,2.1h4.2h29.5h4.2c1.5,0,2.8-0.9,2.8-2.1S69.9,98.9,68.4,98.9z"/>
	</g>
</g>
<g id="Layer_1">
	<g>
		<g>
			<path d="M84.1,26L60,1.8L58.2,0H0v5.2v103.9v5.2h85.7V27.5L84.1,26z M80.5,109.1H5.2V5.2h49.3v26h26V109.1z M76.9,26H59.7V8.8
				L76.9,26z"/>
		</g>
	</g>
	<g>
		<g>
			<path d="M85.2,27.5L57.7,0H-0.5v5.2v103.9v5.2h85.7V27.5z M59.3,8.8L76.4,26H59.3V8.8z M80,109.1H4.7V5.2h49.3v26h26V109.1z"/>
		</g>
	</g>
	<rect x="693.9" y="389.2" style="fill:none;" width="74.4" height="32.7"/>
	<text transform="matrix(1 0 0 1 706.0028 409.9059)" style="font-family:'MyriadWebPro-Bold'; font-size:29.0227px;">N/A</text>
</g>
</svg>
