<?xml version="1.0" encoding="utf-8"?>
<!-- Generator: Adobe Illustrator 23.0.2, SVG Export Plug-In . SVG Version: 6.00 Build 0)  -->
<svg version="1.1" id="Layer_1" xmlns="http://www.w3.org/2000/svg" xmlns:xlink="http://www.w3.org/1999/xlink" x="0px" y="0px"
	 viewBox="0 0 85.7 114.3" style="enable-background:new 0 0 85.7 114.3;" xml:space="preserve">
<style type="text/css">
	.st0{fill:#FFFFFF;}
	.st1{display:none;}
	.st2{display:inline;}
	.st3{fill:#FF0000;}
	.st4{fill:#616265;}
	.st5{fill:#00A651;}
	.st6{fill:#D0D0D0;}
	.st7{display:inline;fill:#616265;}
	.st8{display:inline;fill:#00A651;}
	.st9{display:inline;fill:#FFFFFF;}
</style>
<g>
	<g>
		<path d="M85.7-0.1H0v5.2V109v5.2h85.7V-0.1z M80.5,109H5.2V5.1h49.3l26,26V109z"/>
		<rect x="5.2" y="5.1" class="st0" width="75.3" height="103.9"/>
	</g>
</g>
<g id="Layer_10">
	<polygon class="st0" points="80.5,31.2 54.5,31.2 54.5,5.2 5.2,5.2 5.2,109.1 80.5,109.1 	"/>
	<polygon class="st0" points="59.7,8.8 59.7,26 76.9,26 	"/>
	<polygon class="st0" points="59.7,8.8 59.7,26 76.9,26 	"/>
</g>
<g id="Layer_7" class="st1">
	<g class="st2">
		<polygon class="st3" points="48.4,57.5 44.4,53.5 38.4,59.5 32.3,53.5 28.3,57.5 34.3,63.6 28.3,69.6 32.3,73.7 38.4,67.6 
			44.4,73.7 48.4,69.6 42.4,63.6 		"/>
		<path class="st4" d="M38.4,39.7c-13.2,0-23.8,10.7-23.8,23.8s10.7,23.8,23.8,23.8c4,0,8-1,11.3-2.8c0.3,0.3,0.6,0.6,0.9,0.9
			l6.8,6.8c2.5,2.9,6.9,3.1,9.8,0.6s3.1-6.9,0.6-9.8c-0.2-0.2-0.4-0.4-0.6-0.6l-6.8-6.8c-0.3-0.3-0.7-0.6-1.1-0.9
			c1.8-3.3,3-7.2,3-11.3C62.3,50.3,51.6,39.6,38.4,39.7L38.4,39.7z M38.4,46.5c9.5,0,17,7.6,17,17c0,4.5-1.6,8.7-4.5,11.7
			c-0.1,0.1-0.1,0.1-0.2,0.2c-0.3,0.3-0.6,0.6-0.9,0.9c-3,2.7-7.1,4.3-11.5,4.3c-9.5,0-17-7.6-17-17S28.9,46.6,38.4,46.5L38.4,46.5z
			"/>
	</g>
</g>
<g id="Layer_6" class="st1">
	<g class="st2">
		<path class="st5" d="M24.8,68.1c0-9.8,7.9-17.8,17.7-17.8v-7.7c-14,0.1-25.4,11.5-25.4,25.6s11.4,25.5,25.4,25.6v-7.7
			C32.7,85.8,24.8,77.9,24.8,68.1z"/>
		<path class="st6" d="M42.6,42.5L42.6,42.5l-0.1,7.7h0.1c9.8,0,17.9,8,17.9,17.9S52.5,86,42.6,86h-0.1v7.7h0.1
			c14.1,0,25.6-11.5,25.6-25.6S56.7,42.5,42.6,42.5z"/>
	</g>
</g>
<g id="Layer_5" class="st1">
	<g class="st2">
		<path class="st4" d="M61.7,45.4c0.6,13.3-0.8,10.7-11.9,20.5c-3.9,3.5-3.3,1.6-3.3,5.7c0,0.6,12.9,10.1,14.4,13.1
			c1.2,2.3,1,8.8,0.8,10.7c3.1,0,2.7,0.2,2.7,4.1c0,0.8-0.6,1.4-1.4,1.4H22.5c-1.4,0-3.7-5.5,1.4-5.5c-0.2-1.8-0.4-8.4,0.6-10.7
			c1.4-3.1,14.4-12.5,14.4-13.1c0-4.1,0.8-2.3-3.1-5.7c-11.3-9.8-12.7-7.2-12.1-20.5c-3.1,0-2.7-0.4-2.7-4.3c0-0.8,0.6-1.4,1.4-1.4
			h40.4C64.3,39.7,66.6,45.4,61.7,45.4z M26.6,95.5h3.1l11.9-12.7c0.6-0.8,1.6-0.8,2.5,0l11.7,12.7h3.1c0.2-0.4,0.4-7.8-0.4-9.4
			c-1.2-2.9-14.6-11.7-14.6-14.4c0-3.7-0.6-3.5,4.1-7.8c12.2-11.1,11-6.2,11-18.3v-0.2H26.6l0.2,7.6c1,5.7,14.8,11.9,14.8,15.6
			c0,3.9,0.8,3.7-3.9,7.8c-12.5,11.1-11.1,6.4-11.1,18.5C26.6,95.1,26.6,95.3,26.6,95.5z"/>
		<path class="st4" d="M43.2,64.9l4.9-5.3H37.3l4.9,5.3C42.6,65.1,43,65.1,43.2,64.9z"/>
	</g>
</g>
<g id="Layer_4" class="st1">
	<path class="st7" d="M14.5,42.6v8h55.9v-8H14.5z M14.5,58.6v39.2c0,0.4,0.3,0.7,0.7,0.7h54.4c0.4,0,0.7-0.3,0.7-0.7V58.6H14.5
		L14.5,58.6z M22.4,66.6h8v8h-8V66.6z M38.4,66.6h8v8h-8V66.6z M54.4,66.6h8v8h-8V66.6z M22.4,82.6h8v8h-8V82.6z M38.4,82.6h8v8h-8
		V82.6z"/>
</g>
<g id="Layer_8" class="st1">
	<g class="st2">
		<path d="M23.7,76.9h-4.2V57.3h5.3l4.7,8c0.9,1.6,1.8,3.5,2.8,5.9h0.1c-0.2-2.1-0.3-4.7-0.3-8.1v-5.9h4.1v19.6h-4.8
			c-3.3-5.8-5.3-9.2-5.9-10.4c-0.6-1.2-1.3-2.6-2-4.2h-0.1c0.1,2.5,0.2,5.3,0.2,8.5v6.2C23.6,76.9,23.7,76.9,23.7,76.9z"/>
		<path d="M41.8,78.1h-3L45,57h3L41.8,78.1z"/>
		<path d="M60.6,71.8h-5.9l-1.5,5.1h-4.7l6.2-19.6h5.9L67,76.9h-4.9L60.6,71.8z M55.4,68.5h4.5c-1.2-3.8-1.9-6.4-2.3-7.9h-0.1
			l-0.9,3.7L55.4,68.5z"/>
	</g>
</g>
<g id="Layer_9" class="st1">
	<polygon class="st8" points="85.2,114.3 -0.5,114.3 -0.5,0 51.1,0 85.2,30.9 	"/>
	<path class="st9" d="M56.5,49.5l-3.9,4.1L36.8,69.4L32.2,65l-4.1-4.1l-8,8l4.1,4.1l8.5,8.5l3.9,4.1l4.1-4.1l19.9-19.9l4.1-4.1
		L56.5,49.5z"/>
</g>
<g>
	<g>
		<g>
			<path class="st4" d="M27.7,46.8l16.9-16.9c1.1-1.1,1.1-2.9,0-4s-2.9-1.1-4,0L23.7,42.8c-1.1,1.1-1.1,2.9,0,4
				C24.8,47.9,26.6,47.9,27.7,46.8z"/>
			<path class="st4" d="M70.4,51.8c-1.1-1.1-2.9-1.1-4,0L49.5,68.7c-1.1,1.1-1.1,2.9,0,4s2.9,1.1,4,0l16.9-16.9
				C71.5,54.7,71.5,52.9,70.4,51.8z"/>
			<path class="st4" d="M63.4,50.8l-7-7l1-1c1.1-1.1,1.1-2.9,0-4l-1-1c-1.1-1.1-2.9-1.1-4,0l-1,1l-6-6l-14.8,15l6,6L13.8,76.6
				c-1.1,1.1-1.1,2.9,0,4l1,1c1.1,1.1,2.9,1.1,4,0l22.8-22.8l7,7L63.4,50.8z"/>
		</g>
		<path class="st4" d="M68.4,86.9H67v-1.4c0-1.5-1.3-2.8-2.8-2.8H34.7c-1.5,0-2.8,1.3-2.8,2.8v1.4h-1.4c-1.5,0-2.8,0.9-2.8,2.1
			s1.3,2.1,2.8,2.1h4.2h29.5h4.2c1.5,0,2.8-0.9,2.8-2.1S69.9,86.9,68.4,86.9z"/>
	</g>
</g>
</svg>
